<svg xmlns="http://www.w3.org/2000/svg" viewBox="0 0 30 30" id="Entertainment-Events-Hobbies-Bomb--Streamline-Pixel" height="30" width="30">
  <desc>
    Entertainment Events Hobbies Bomb Streamline Icon: https://streamlinehq.com
  </desc>
  <title>entertainment-events-hobbies-bomb</title>
  <g>
    <path d="M27.140625 5.71875H30v1.425h-2.859375Z" fill="#000000" stroke-width="0.9375"></path>
    <path d="M27.140625 10.003125h1.425v1.425h-1.425Z" fill="#000000" stroke-width="0.9375"></path>
    <path d="M27.140625 1.425h1.425v1.434375h-1.425Z" fill="#000000" stroke-width="0.9375"></path>
    <path d="M25.70625 8.568750000000001h1.434375v1.434375h-1.434375Z" fill="#000000" stroke-width="0.9375"></path>
    <path d="M25.70625 2.859375h1.434375v1.425h-1.434375Z" fill="#000000" stroke-width="0.9375"></path>
    <path d="M22.85625 5.71875h1.425v2.85h-1.425Z" fill="#000000" stroke-width="0.9375"></path>
    <path d="M22.85625 0h1.425v2.859375h-1.425Z" fill="#000000" stroke-width="0.9375"></path>
    <path d="M18.5625 8.568750000000001h4.29375v1.434375H18.5625Z" fill="#000000" stroke-width="0.9375"></path>
    <path d="M19.996875 2.859375h1.425v1.425h-1.425Z" fill="#000000" stroke-width="0.9375"></path>
    <path d="M18.5625 1.425h1.434375v1.434375H18.5625Z" fill="#000000" stroke-width="0.9375"></path>
    <path d="M17.137500000000003 7.14375h1.425v1.425h-1.425Z" fill="#000000" stroke-width="0.9375"></path>
    <path d="M15.712500000000002 5.71875h1.425v1.425h-1.425Z" fill="#000000" stroke-width="0.9375"></path>
    <path d="M11.428125 4.284375000000001h4.284375000000001V5.71875h-4.284375000000001Z" fill="#000000" stroke-width="0.9375"></path>
    <path d="M9.99375 8.568750000000001H7.134375v2.859375H4.284375000000001v1.425H2.85v1.434375H1.425v2.859375H0v5.709375h1.425v2.859375h1.425v1.425h1.434375v1.434375h2.85V30h7.14375v-1.425h2.859375v-1.434375h1.425v-1.425h1.434375v-2.859375h1.425v-5.709375h-1.425v-2.859375H18.5625v-1.434375h-1.425v-1.425h-2.859375V8.568750000000001h-2.85V5.71875h-1.434375Zm4.284375000000001 5.71875h1.434375v1.425h1.425v1.434375h1.425v5.709375h-1.425v-5.709375h-1.425v-1.434375h-1.434375Zm0 9.99375h1.434375v1.434375h-1.434375Z" fill="#000000" stroke-width="0.9375"></path>
  </g>
</svg>